# xmcd
#
# Track frame offsets: 
#        182
#        21720
#        55395
#        78242
#        91672
#        111265
#        144822
#        162347
#        182385
#        201607
#        222830
#
# Disc length: 3578 seconds
#
# Revision: 3
# Processed by: cddbd v1.5.1PL0 Copyright (c) Steve Scherf et al.
# Submitted via: ExactAudioCopy v0.95a5
#
DISCID=950df80b
DTITLE=Beth Orton - Trailer Park
DYEAR=1996
DGENRE=Trip-Hop
TTITLE0=She Cries Your Name
TTITLE1=Tangent
TTITLE2=Don't Need a Reason
TTITLE3=Live As You Dream
TTITLE4=Sugar Boy
TTITLE5=Touch Me With Your Love
TTITLE6=Whenever
TTITLE7=How Far
TTITLE8=Someone's Daughter
TTITLE9=I Wish I Never Saw the Sunshine
TTITLE10=Galaxy of Emptiness
EXTD=
EXTT0=
EXTT1=
EXTT2=
EXTT3=
EXTT4=
EXTT5=
EXTT6=
EXTT7=
EXTT8=
EXTT9=
EXTT10=
PLAYORDER=
